<svg width="181" height="24" viewBox="0 0 181 24" fill="none" xmlns="http://www.w3.org/2000/svg">
<g clip-path="url(#clip0_75_274)">
<path fill-rule="evenodd" clip-rule="evenodd" d="M82.584 17V1.248H87.402C89.807 1.248 91.74 1.974 93.199 3.426C94.659 4.878 95.388 6.777 95.388 9.124C95.388 11.485 94.658 13.388 93.199 14.833C91.739 16.278 89.807 17 87.402 17H82.584ZM84.608 3.184V15.064H87.402C89.235 15.064 90.68 14.54 91.736 13.491C92.792 12.442 93.32 10.987 93.32 9.124C93.32 7.276 92.792 5.824 91.736 4.768C90.68 3.712 89.236 3.184 87.402 3.184H84.608ZM102.274 17.352C100.69 17.352 99.384 16.809 98.358 15.724C97.331 14.639 96.818 13.267 96.818 11.61C96.818 9.967 97.317 8.6 98.314 7.507C99.311 6.414 100.587 5.868 102.142 5.868C103.741 5.868 105.013 6.385 105.959 7.419C106.905 8.453 107.378 9.901 107.378 11.764L107.356 11.984H98.886C98.916 13.04 99.267 13.891 99.942 14.536C100.261 14.8495 100.639 15.0966 101.055 15.2627C101.47 15.4289 101.915 15.5109 102.362 15.504C103.652 15.504 104.665 14.859 105.398 13.568L107.202 14.448C106.742 15.3322 106.045 16.071 105.189 16.582C104.331 17.095 103.359 17.352 102.274 17.352ZM99.04 10.312H105.222C105.201 9.95711 105.109 9.61002 104.952 9.29089C104.795 8.97176 104.577 8.68695 104.309 8.453C103.759 7.962 103.022 7.716 102.098 7.716C101.335 7.716 100.679 7.951 100.129 8.42C99.579 8.89 99.216 9.52 99.04 10.312ZM114.066 17.352C112.482 17.352 111.176 16.809 110.15 15.724C109.123 14.639 108.61 13.267 108.61 11.61C108.61 9.967 109.109 8.6 110.106 7.507C111.103 6.414 112.379 5.868 113.934 5.868C115.533 5.868 116.805 6.385 117.751 7.419C118.697 8.453 119.17 9.901 119.17 11.764L119.148 11.984H110.678C110.708 13.04 111.059 13.891 111.734 14.536C112.053 14.8495 112.431 15.0966 112.847 15.2627C113.262 15.4289 113.707 15.5109 114.154 15.504C115.444 15.504 116.457 14.859 117.19 13.568L118.994 14.448C118.534 15.3322 117.837 16.071 116.981 16.582C116.123 17.095 115.151 17.352 114.066 17.352ZM110.832 10.312H117.014C116.993 9.95711 116.901 9.61002 116.744 9.29089C116.587 8.97176 116.369 8.68695 116.101 8.453C115.551 7.962 114.814 7.716 113.89 7.716C113.127 7.716 112.471 7.951 111.921 8.42C111.371 8.89 111.008 9.52 110.832 10.312ZM126.298 15.504C127.266 15.504 128.08 15.137 128.74 14.404C129.4 13.685 129.73 12.754 129.73 11.61C129.73 10.48 129.4 9.55 128.74 8.816C128.08 8.083 127.266 7.716 126.298 7.716C125.315 7.716 124.494 8.083 123.834 8.816C123.189 9.549 122.866 10.481 122.866 11.61C122.866 12.754 123.189 13.693 123.834 14.426C124.494 15.145 125.315 15.504 126.298 15.504ZM126.628 17.352C125.875 17.3612 125.132 17.1876 124.461 16.846C123.808 16.509 123.306 16.061 122.954 15.504H122.866L122.954 17V21.752H120.93V6.22H122.866V7.716H122.954C123.306 7.159 123.808 6.711 124.461 6.374C125.132 6.0324 125.875 5.85875 126.628 5.868C128.051 5.868 129.253 6.425 130.236 7.54C131.248 8.67 131.754 10.026 131.754 11.61C131.754 13.209 131.248 14.565 130.236 15.68C129.253 16.795 128.051 17.352 126.628 17.352ZM135.978 17H133.954V1.248H135.978L141.456 10.84H141.544L147.022 1.248H149.046V17H147.022V7.65L147.11 5.01H147.022L142.094 13.656H140.906L135.978 5.01H135.89L135.978 7.65V17ZM154.48 2.502C154.48 2.898 154.34 3.235 154.062 3.514C153.931 3.64913 153.773 3.75593 153.599 3.82783C153.425 3.89972 153.238 3.93518 153.05 3.932C152.654 3.932 152.317 3.792 152.038 3.514C151.903 3.38283 151.796 3.22536 151.724 3.0513C151.652 2.87724 151.617 2.69029 151.62 2.502C151.62 2.106 151.76 1.769 152.038 1.49C152.169 1.35487 152.327 1.24807 152.501 1.17617C152.675 1.10428 152.862 1.06882 153.05 1.072C153.446 1.072 153.783 1.212 154.062 1.49C154.341 1.769 154.48 2.106 154.48 2.502ZM154.062 6.22V17H152.038V6.22H154.062ZM156.702 6.22H158.638V7.716H158.726C159.034 7.188 159.507 6.748 160.145 6.396C160.752 6.05207 161.438 5.87024 162.136 5.868C163.456 5.868 164.472 6.246 165.183 7.001C165.894 7.756 166.25 8.831 166.25 10.224V17H164.226V10.356C164.182 8.596 163.295 7.716 161.564 7.716C160.757 7.716 160.083 8.042 159.54 8.695C158.997 9.348 158.726 10.129 158.726 11.038V17H156.702V6.22ZM173.466 15.504C174.463 15.504 175.277 15.144 175.908 14.426C176.568 13.707 176.898 12.769 176.898 11.61C176.898 10.48 176.568 9.55 175.908 8.816C175.263 8.083 174.448 7.716 173.466 7.716C172.498 7.716 171.684 8.083 171.024 8.816C170.364 9.549 170.034 10.481 170.034 11.61C170.034 12.754 170.364 13.685 171.024 14.404C171.684 15.137 172.498 15.504 173.466 15.504ZM173.136 17.352C171.728 17.352 170.518 16.795 169.506 15.68C168.509 14.55 168.01 13.194 168.01 11.61C168.01 10.026 168.509 8.67 169.506 7.54C170.518 6.425 171.728 5.868 173.136 5.868C173.928 5.868 174.65 6.037 175.303 6.374C175.956 6.711 176.458 7.159 176.81 7.716H176.898L176.81 6.22V1.248H178.834V17H176.898V15.504H176.81C176.458 16.061 175.956 16.509 175.303 16.846C174.632 17.1876 173.889 17.3612 173.136 17.352ZM19.947 8.482H11.43V11.018H17.471C17.173 14.575 14.224 16.092 11.441 16.092C7.879 16.092 4.771 13.28 4.771 9.339C4.771 5.5 7.734 2.544 11.448 2.544C14.314 2.544 16.003 4.377 16.003 4.377L17.773 2.537L17.649 2.411C17.123 1.898 14.94 0 11.357 0C6.081 0 2 4.468 2 9.294C2 14.023 5.84 18.634 11.491 18.634C16.463 18.634 20.101 15.217 20.101 10.164C20.1055 9.65919 20.066 9.15495 19.983 8.657L19.947 8.482ZM26.96 8.997C28.679 8.997 30.307 10.392 30.307 12.639C30.307 14.838 28.686 16.272 26.952 16.272C25.047 16.272 23.544 14.742 23.544 12.622C23.544 10.547 25.029 8.997 26.96 8.997ZM26.925 6.645C23.43 6.645 20.925 9.387 20.925 12.585C20.925 15.83 23.355 18.623 26.966 18.623C30.236 18.623 32.914 16.115 32.914 12.655C32.914 8.778 29.938 6.739 27.121 6.648L26.925 6.645ZM40.01 8.997C41.73 8.997 43.358 10.392 43.358 12.639C43.358 14.838 41.736 16.272 40.002 16.272C38.098 16.272 36.595 14.742 36.595 12.622C36.595 10.547 38.079 8.997 40.01 8.997ZM39.976 6.645C36.48 6.645 33.976 9.387 33.976 12.585C33.976 15.83 36.406 18.623 40.016 18.623C43.286 18.623 45.965 16.115 45.965 12.655C45.965 8.778 42.989 6.739 40.172 6.648L39.976 6.645ZM53.006 9C54.579 9 56.194 10.348 56.194 12.65C56.194 14.988 54.583 16.278 52.972 16.278C51.262 16.278 49.67 14.884 49.67 12.671C49.67 10.372 51.322 9.001 53.006 9.001V9ZM52.774 6.652C49.566 6.652 47.044 9.472 47.044 12.636C47.044 16.241 49.968 18.632 52.719 18.632C54.419 18.632 55.324 17.954 55.992 17.177V18.357C55.992 20.424 54.742 21.661 52.855 21.661C51.031 21.661 50.117 20.301 49.799 19.529L47.506 20.491C48.319 22.217 49.957 24.018 52.874 24.018C56.064 24.018 58.494 22.002 58.494 17.774V7.012H55.992V8.026C55.271 7.246 54.301 6.72 53.032 6.658L52.774 6.652ZM69.725 8.942C70.815 8.942 71.6 9.523 71.934 10.221L66.589 12.462C66.359 10.727 67.997 8.942 69.725 8.942ZM69.621 6.638C66.595 6.638 64.054 9.054 64.054 12.619C64.054 16.391 66.886 18.629 69.912 18.629C72.437 18.629 73.987 17.242 74.912 16L72.849 14.623C72.313 15.456 71.419 16.271 69.924 16.271C68.246 16.271 67.474 15.349 66.997 14.456L75 11.123L74.585 10.147C73.838 8.3 72.131 6.748 69.866 6.643L69.621 6.638ZM60.24 18.272H62.868V0.62H60.24V18.272Z" fill="white"/>
</g>
<defs>
<clipPath id="clip0_75_274">
<rect width="181" height="24" fill="white"/>
</clipPath>
</defs>
</svg>
